<?xml version="1.0" encoding="UTF-8" standalone="no"?>
<!-- Created with Inkscape (http://www.inkscape.org/) -->

<svg
   xmlns:dc="http://purl.org/dc/elements/1.1/"
   xmlns:cc="http://creativecommons.org/ns#"
   xmlns:rdf="http://www.w3.org/1999/02/22-rdf-syntax-ns#"
   xmlns:svg="http://www.w3.org/2000/svg"
   xmlns="http://www.w3.org/2000/svg"
   xmlns:sodipodi="http://sodipodi.sourceforge.net/DTD/sodipodi-0.dtd"
   xmlns:inkscape="http://www.inkscape.org/namespaces/inkscape"
   version="1.1"
   id="svg3699"
   xml:space="preserve"
   width="720"
   height="720"
   viewBox="0 0 720 720"
   sodipodi:docname="rilix-flat-logo-white.svg"
   inkscape:version="0.92.1 r"><metadata
     id="metadata3705"><rdf:RDF><cc:Work
         rdf:about=""><dc:format>image/svg+xml</dc:format><dc:type
           rdf:resource="http://purl.org/dc/dcmitype/StillImage" /><dc:title></dc:title></cc:Work></rdf:RDF></metadata><defs
     id="defs3703"><clipPath
       clipPathUnits="userSpaceOnUse"
       id="clipPath3715"><path
         d="M 0,540 H 540 V 0 H 0 Z"
         id="path3713"
         inkscape:connector-curvature="0" /></clipPath><clipPath
       clipPathUnits="userSpaceOnUse"
       id="clipPath3727"><path
         d="m 282.289,471.274 0.576,-251.998 c 0,-5.731 -2.488,-10.129 -7.455,-13.186 v 0 c -5.351,-3.054 -10.51,-3.054 -15.48,0 v 0 c -4.971,3.057 -7.455,7.455 -7.455,13.186 v 0 251.82 0.178 c 0,18.247 -13.422,31.745 -30.804,32.178 v 0 C 177.577,494.486 135.54,472.914 101.339,438.713 v 0 C 8.61,345.984 8.61,195.638 101.339,102.907 v 0 C 121.568,82.68 144.542,66.865 169.06,55.462 v 0 c 0.112,-0.049 0.222,-0.104 0.333,-0.155 v 0 c 1.386,-0.643 2.777,-1.26 4.172,-1.871 v 0 c 0.547,-0.241 1.086,-0.484 1.634,-0.719 v 0 c 0.964,-0.414 1.933,-0.816 2.899,-1.217 v 0 c 0.984,-0.408 1.97,-0.816 2.961,-1.208 v 0 c 0.536,-0.216 1.075,-0.422 1.613,-0.632 v 0 c 1.435,-0.56 2.875,-1.11 4.324,-1.642 v 0 c 0.098,-0.037 0.198,-0.072 0.297,-0.111 v 0 c 25.408,-9.281 52.847,-14.345 81.466,-14.345 v 0 c 131.14,0 237.45,106.309 237.45,237.451 v 0 c 0,100.433 -62.365,186.283 -150.471,220.983 v 0 c -0.663,0.258 -1.318,0.525 -1.984,0.776 v 0 c -0.383,0.147 -0.771,0.288 -1.157,0.434 v 0 c -11.367,4.25 -22.994,7.592 -34.771,10.034 v 0 c -1.306,0.143 -2.598,0.213 -3.869,0.213 v 0 c -17.797,0.003 -31.668,-13.63 -31.668,-32.179 M 449.125,334.515 c 3.822,4.585 8.6,6.497 14.333,5.734 v 0 c 5.734,-1.149 9.746,-4.399 12.038,-9.748 v 0 c 1.907,-5.349 0.955,-10.32 -2.866,-14.907 v 0 l -34.971,-43.573 34.971,-42.999 c 3.821,-4.583 4.773,-9.746 2.866,-15.477 v 0 c -2.292,-5.352 -6.304,-8.413 -12.038,-9.174 v 0 c -5.733,-1.148 -10.511,0.574 -14.333,5.162 v 0 l -30.959,38.408 -30.961,-38.408 c -3.826,-4.588 -8.597,-6.31 -14.33,-5.162 v 0 c -5.735,0.761 -9.749,3.822 -12.043,9.174 v 0 c -1.914,5.731 -0.957,10.894 2.866,15.477 v 0 l 34.976,42.999 -34.976,43.573 c -4.204,4.968 -4.971,10.32 -2.292,16.054 v 0 c 2.675,5.734 7.26,8.601 13.758,8.601 v 0 c 4.971,0 8.982,-1.917 12.041,-5.734 v 0 l 30.961,-38.413 z M 317.836,206.09 c -4.972,3.057 -7.453,7.455 -7.453,13.186 v 0 105.492 c 0,2.294 0.574,4.393 1.721,6.309 v 0 c 2.289,6.112 6.685,9.172 13.185,9.172 v 0 c 4.586,0 8.217,-1.531 10.892,-4.588 v 0 c 3.056,-3.061 4.588,-6.695 4.588,-10.893 v 0 -105.492 c 0,-5.731 -2.487,-10.129 -7.455,-13.186 v 0 c -2.677,-1.526 -5.305,-2.289 -7.884,-2.289 v 0 c -2.578,0 -5.111,0.763 -7.594,2.289 m -116.384,0 c -4.97,3.057 -7.45,7.455 -7.45,13.186 v 0 105.492 c 0,2.294 0.572,4.393 1.717,6.309 v 0 c 2.295,6.112 6.688,9.172 13.188,9.172 v 0 c 4.587,0 8.215,-1.531 10.896,-4.588 v 0 c 3.053,-3.061 4.584,-6.695 4.584,-10.893 v 0 -105.492 c 0,-5.731 -2.486,-10.129 -7.452,-13.186 v 0 c -2.676,-1.526 -5.304,-2.289 -7.885,-2.289 v 0 c -2.58,0 -5.113,0.763 -7.598,2.289 m -130.142,0 c -4.972,3.057 -7.452,7.455 -7.452,13.186 v 0 65.934 c 1.91,26.372 13.567,43.375 34.971,51.024 v 0 c 6.116,2.674 12.803,4.015 20.068,4.015 v 0 c 21.02,0 36.881,-9.365 47.584,-28.093 v 0 c 3.055,-5.735 3.055,-11.277 0,-16.628 v 0 c -3.438,-4.97 -8.219,-7.265 -14.332,-6.879 v 0 c -6.118,0.766 -10.32,4.014 -12.611,9.745 v 0 c -2.68,5.348 -6.121,8.599 -10.323,9.75 v 0 c -3.058,0.76 -6.497,1.143 -10.318,1.143 v 0 c -9.94,0 -16.626,-2.677 -20.068,-8.024 v 0 c -0.385,-0.768 -0.959,-1.724 -1.719,-2.869 v 0 c -1.912,-4.206 -3.056,-8.597 -3.438,-13.184 v 0 -65.934 c 0,-5.731 -2.293,-10.129 -6.882,-13.186 v 0 c -2.677,-1.526 -5.304,-2.289 -7.884,-2.289 v 0 c -2.581,0 -5.112,0.763 -7.596,2.289"
         id="path3725"
         inkscape:connector-curvature="0" /></clipPath><clipPath
       clipPathUnits="userSpaceOnUse"
       id="clipPath3737"><path
         d="M 0,540 H 540 V 0 H 0 Z"
         id="path3735"
         inkscape:connector-curvature="0" /></clipPath><clipPath
       clipPathUnits="userSpaceOnUse"
       id="clipPath3749"><path
         d="M 5.808,270.807 C 5.808,125.449 123.644,7.616 269,7.616 v 0 c 145.357,0 263.193,117.833 263.193,263.191 v 0 C 532.193,416.164 414.357,534 269,534 v 0 C 123.644,534 5.808,416.164 5.808,270.807 m 11.573,0 c 0,138.967 112.654,251.621 251.619,251.621 v 0 c 138.965,0 251.621,-112.654 251.621,-251.621 v 0 C 520.621,131.842 407.965,19.187 269,19.187 v 0 c -138.965,0 -251.619,112.655 -251.619,251.62"
         id="path3747"
         inkscape:connector-curvature="0" /></clipPath></defs><sodipodi:namedview
     pagecolor="#ffffff"
     bordercolor="#666666"
     borderopacity="1"
     objecttolerance="10"
     gridtolerance="10"
     guidetolerance="10"
     inkscape:pageopacity="0"
     inkscape:pageshadow="2"
     inkscape:window-width="1920"
     inkscape:window-height="1029"
     id="namedview3701"
     showgrid="false"
     inkscape:zoom="0.83379675"
     inkscape:cx="447.46717"
     inkscape:cy="342.83352"
     inkscape:window-x="1024"
     inkscape:window-y="27"
     inkscape:window-maximized="1"
     inkscape:current-layer="g3707" /><g
     id="g3707"
     inkscape:groupmode="layer"
     inkscape:label="Rilix Logo Chapado"
     transform="matrix(1.3333333,0,0,-1.3333333,0,720)"><g
       id="g3709"
       style="fill:#ffffff"><g
         id="g3711"
         clip-path="url(#clipPath3715)"
         style="fill:#ffffff"><g
           id="g3717"
           transform="translate(282.2891,471.2744)"
           style="fill:#ffffff"><path
             d="m 0,0 0.575,-251.998 c 0,-5.731 -2.487,-10.129 -7.454,-13.187 -5.35,-3.053 -10.51,-3.053 -15.48,0 -4.971,3.058 -7.455,7.456 -7.455,13.187 V -0.179 0 c 0,18.246 -13.422,31.745 -30.804,32.177 -44.093,-8.965 -86.131,-30.538 -120.332,-64.739 -92.729,-92.728 -92.729,-243.074 0,-335.805 20.229,-20.227 43.202,-36.043 67.721,-47.445 0.112,-0.049 0.222,-0.104 0.333,-0.156 1.386,-0.642 2.777,-1.26 4.172,-1.871 0.547,-0.241 1.086,-0.484 1.634,-0.718 0.964,-0.414 1.933,-0.816 2.899,-1.217 0.984,-0.409 1.97,-0.816 2.961,-1.208 0.536,-0.216 1.075,-0.422 1.613,-0.632 1.435,-0.56 2.874,-1.111 4.324,-1.643 0.098,-0.037 0.198,-0.072 0.297,-0.11 25.408,-9.281 52.847,-14.346 81.466,-14.346 131.139,0 237.45,106.31 237.45,237.452 0,100.433 -62.365,186.282 -150.471,220.983 -0.663,0.257 -1.318,0.524 -1.984,0.776 -0.383,0.147 -0.772,0.287 -1.157,0.434 -11.367,4.25 -22.994,7.591 -34.771,10.034 -1.306,0.143 -2.599,0.212 -3.869,0.212 C 13.871,32.181 0,18.549 0,0 m 166.836,-136.76 c 3.821,4.586 8.6,6.498 14.333,5.735 5.733,-1.149 9.746,-4.399 12.038,-9.748 1.907,-5.35 0.955,-10.32 -2.866,-14.908 l -34.971,-43.572 34.971,-42.999 c 3.821,-4.583 4.773,-9.746 2.866,-15.477 -2.292,-5.352 -6.305,-8.413 -12.038,-9.174 -5.733,-1.149 -10.512,0.574 -14.333,5.161 l -30.959,38.409 -30.961,-38.409 c -3.826,-4.587 -8.597,-6.31 -14.33,-5.161 -5.735,0.761 -9.749,3.822 -12.043,9.174 -1.914,5.731 -0.957,10.894 2.866,15.477 l 34.976,42.999 -34.976,43.572 c -4.204,4.969 -4.971,10.321 -2.292,16.055 2.675,5.734 7.26,8.601 13.758,8.601 4.971,0 8.982,-1.917 12.041,-5.735 l 30.961,-38.412 z M 35.547,-265.185 c -4.972,3.058 -7.453,7.456 -7.453,13.187 v 105.491 c 0,2.295 0.574,4.394 1.72,6.31 2.29,6.113 6.686,9.172 13.186,9.172 4.586,0 8.217,-1.532 10.893,-4.588 3.055,-3.061 4.586,-6.695 4.586,-10.894 v -105.491 c 0,-5.731 -2.486,-10.129 -7.454,-13.187 -2.676,-1.526 -5.304,-2.288 -7.884,-2.288 -2.578,0 -5.111,0.762 -7.594,2.288 m -116.383,0 c -4.972,3.058 -7.451,7.456 -7.451,13.187 v 105.491 c 0,2.295 0.572,4.394 1.718,6.31 2.295,6.113 6.688,9.172 13.187,9.172 4.588,0 8.215,-1.532 10.896,-4.588 3.053,-3.061 4.584,-6.695 4.584,-10.894 v -105.491 c 0,-5.731 -2.486,-10.129 -7.452,-13.187 -2.676,-1.526 -5.304,-2.288 -7.885,-2.288 -2.58,0 -5.113,0.762 -7.597,2.288 m -130.143,0 c -4.972,3.058 -7.453,7.456 -7.453,13.187 v 65.934 c 1.911,26.372 13.568,43.376 34.972,51.023 6.115,2.674 12.804,4.016 20.068,4.016 21.02,0 36.881,-9.366 47.584,-28.093 3.055,-5.736 3.055,-11.277 0,-16.629 -3.438,-4.97 -8.219,-7.265 -14.333,-6.878 -6.116,0.765 -10.319,4.013 -12.61,9.745 -2.68,5.348 -6.122,8.598 -10.323,9.749 -3.059,0.761 -6.497,1.144 -10.318,1.144 -9.94,0 -16.626,-2.678 -20.068,-8.024 -0.385,-0.768 -0.958,-1.724 -1.719,-2.869 -1.912,-4.206 -3.057,-8.597 -3.438,-13.184 v -65.934 c 0,-5.731 -2.294,-10.129 -6.882,-13.187 -2.677,-1.526 -5.304,-2.288 -7.885,-2.288 -2.58,0 -5.112,0.762 -7.595,2.288"
             style="fill:#ffffff;fill-opacity:1;fill-rule:nonzero;stroke:none"
             id="path3719"
             inkscape:connector-curvature="0" /></g></g></g><g
       id="g3731"
       style="fill:#ffffff"><g
         id="g3733"
         clip-path="url(#clipPath3737)"
         style="fill:#ffffff"><g
           id="g3739"
           transform="translate(5.8081,270.8071)"
           style="fill:#ffffff"><path
             d="m 0,0 c 0,-145.358 117.835,-263.191 263.192,-263.191 145.357,0 263.192,117.833 263.192,263.191 0,145.357 -117.835,263.193 -263.192,263.193 C 117.835,263.193 0,145.357 0,0 m 11.573,0 c 0,138.967 112.654,251.622 251.619,251.622 138.966,0 251.621,-112.655 251.621,-251.622 0,-138.965 -112.655,-251.62 -251.621,-251.62 C 124.227,-251.62 11.573,-138.965 11.573,0"
             style="fill:#ffffff;fill-opacity:1;fill-rule:nonzero;stroke:none"
             id="path3741"
             inkscape:connector-curvature="0" /></g></g></g></g></svg>